<svg width="350" height="350" viewBox="0 0 350 350" fill="none" xmlns="http://www.w3.org/2000/svg">
<g clip-path="url(#clip0)">
<rect width="350" height="350" fill="white"/>
<path d="M172.565 120.107C168.425 120.107 165.859 121.067 162.578 123.751C159.674 126.127 159.446 128.425 159.446 132.011C159.446 135.522 159.49 136.941 161.984 139.434C163.984 141.435 168.389 141.972 171.107 141.972C177.199 141.972 183.254 140.798 183.254 133.469C183.254 131.749 183.179 130.43 182.39 128.853C181.695 127.462 181.143 125.602 180.339 124.372C178.104 120.955 176.717 119.622 172.565 119.622" stroke="black" stroke-width="3" stroke-linecap="round"/>
<path d="M158.961 124.48C154.995 123.707 152.137 122.051 148.028 122.051C145.884 122.051 144.971 122.388 143.898 124.264C143.199 125.488 142.244 128.525 141.226 129.339C140.779 129.697 139.526 133.631 139.526 134.198C139.526 136.192 138.924 138.069 139.04 140.028C139.069 140.521 142.835 142.424 143.413 142.458C145.253 142.566 146.948 142.943 148.757 142.943" stroke="black" stroke-width="3" stroke-linecap="round"/>
<path d="M163.819 143.429C159.929 143.429 155.24 142.759 151.403 143.456C149.936 143.723 147.372 143.941 146.22 144.779C144.871 145.76 142.455 144.754 141.361 146.345C140.495 147.604 138.608 147.924 139.067 149.989C139.433 151.635 141.773 152.661 143.17 152.661C146.652 152.661 150.134 152.661 153.616 152.661" stroke="black" stroke-width="3" stroke-linecap="round"/>
<path d="M141.955 122.051C139.062 121.416 138.893 120.811 139.04 118.164C139.145 116.272 140.525 116.3 141.955 116.22C142.62 116.183 145.075 114.311 145.626 113.791C146.497 112.968 148.062 113.305 149.243 113.305" stroke="black" stroke-width="3" stroke-linecap="round"/>
<path d="M143.413 112.819C143.461 110.502 144.495 109.19 145.248 107.097C145.717 105.794 146.861 104.344 147.57 103.129C149.199 100.336 150.71 98.7243 153.616 97.2713" stroke="black" stroke-width="3" stroke-linecap="round"/>
<path d="M165.763 173.554C166.401 176.822 166.064 178.356 164.548 181.085C164.202 181.707 163.819 183.294 163.819 184C163.819 185.416 163.262 185.914 162.848 187.158" stroke="black" stroke-width="3" stroke-linecap="round"/>
<path d="M150.701 105.045C151.615 100.359 153.89 97.4583 156.153 93.3843C157.416 91.1106 162.844 89.0115 165.277 89.0115" stroke="black" stroke-width="3" stroke-linecap="round"/>
<path d="M152.644 106.017C155.007 102.898 157.185 101.495 160.418 99.5927C161.886 98.7293 163.68 97.6721 165.061 96.5425C165.933 95.8291 168.685 94.4128 169.65 94.3561C171.978 94.2191 174.797 92.5108 177.046 91.8188C179.878 90.9473 182.696 90.955 185.684 90.955" stroke="black" stroke-width="3" stroke-linecap="round"/>
<path d="M152.644 93.3844C150.938 94.0501 147.48 95.0358 146.058 96.2996C144.743 97.4688 142.927 99.9472 142.927 97.0284C142.927 93.6899 145.804 88.0026 149 86.5821C152.077 85.2145 154.518 82.2093 158.232 82.2093C162.077 82.2093 165.529 80.2658 169.407 80.2658C172.727 80.2658 176.047 80.2658 179.367 80.2658C183.156 80.2658 185.872 81.9917 189.571 82.2093C190.683 82.2747 192.112 84.1484 193.215 84.6386C195.745 85.7633 195.72 87.3503 198.802 85.7183C199.839 85.1697 202.497 84.2718 203.175 83.4239C203.89 82.5305 207.777 83.181 209.006 83.181" stroke="black" stroke-width="3" stroke-linecap="round"/>
<path d="M197.83 89.4974C199.394 89.4974 202.178 89.3062 203.661 90.0912C204.596 90.586 204.712 91.7898 205.335 92.4126C206.958 94.0359 209.159 94.3296 209.977 96.7855" stroke="black" stroke-width="3" stroke-linecap="round"/>
<path d="M186.655 93.8702C182.55 94.6713 179.429 95.2663 176.452 98.2431C174.193 100.502 171.954 104.147 171.08 107.205C170.933 107.719 170.407 108.916 170.028 109.31C169.659 109.693 167.22 110.69 167.22 111.146C167.22 111.218 169.224 109.83 169.407 109.688C170.047 109.19 171.025 109.4 171.593 108.689C172.401 107.68 175.187 107.304 176.344 106.503C177.802 105.494 179.246 103.999 180.825 103.21C183.688 101.778 187.095 98.1426 190.434 97.7572C191.581 97.6249 194.915 94.0454 194.915 96.5425C194.915 98.4546 192.972 99.2469 192.972 100.915C192.972 102.495 192.078 109.481 193.215 110.39C194.36 111.306 194.771 113.917 195.995 115.141C196.962 116.108 197.647 118.072 198.802 118.65" stroke="black" stroke-width="3" stroke-linecap="round"/>
<path d="M195.887 128.853C196.525 125.948 197.124 125.452 200.017 125.452C201.027 125.452 202.402 125.165 203.175 125.938C204.584 127.346 204.147 130.886 204.147 132.74C204.147 133.793 204.147 134.846 204.147 135.898C204.147 137.653 203.402 136.688 202.203 137.221C200.098 138.157 197.699 138.085 195.401 138.085" stroke="black" stroke-width="3" stroke-linecap="round"/>
<path d="M199.774 141C199.603 148.02 197.345 154.519 197.345 161.515C197.345 163.098 197.345 164.682 197.345 166.265C197.345 167.982 196.373 169.133 196.373 170.638C196.373 173.716 196.373 176.793 196.373 179.87" stroke="black" stroke-width="3" stroke-linecap="round"/>
<path d="M199.288 121.079C201.703 122.966 201.887 124.147 204.849 124.993C205.574 125.2 208.074 127.699 208.52 128.367" stroke="black" stroke-width="3" stroke-linecap="round"/>
<path d="M209.977 99.2148C211.642 104.11 214.079 109.131 214.35 114.277C214.557 118.204 215.322 121.89 215.322 125.938C215.322 130.016 210.91 132.733 209.599 136.519C208.256 140.402 204.647 142.61 201.232 144.887" stroke="black" stroke-width="3" stroke-linecap="round"/>
<path d="M194.915 83.181C194.875 81.5367 193.974 76.637 192.486 75.8929" stroke="black" stroke-width="3" stroke-linecap="round"/>
<path d="M173.537 111.848C176.108 111.848 178.407 111.373 180.339 113.305" stroke="black" stroke-width="3" stroke-linecap="round"/>
<path d="M170.622 195.904C170.971 194.041 171.853 190.164 174.131 190.073C176.394 189.983 178.421 188.097 180.582 187.617C182.833 187.117 184.219 184.378 186.655 184.243C187.786 184.18 192.846 182.821 193.458 182.056C194.394 180.886 197.477 181.609 198.316 180.14C198.993 178.956 203.261 179.978 203.769 180.842C204.229 181.624 205.372 182.048 206.09 182.407C207.683 183.204 207.428 185.269 208.763 186.159C210.61 187.391 212.437 189.717 213.972 191.423C216.012 193.69 214.68 193.96 212.407 193.96C210.067 193.96 208.33 195.299 206.306 195.877C203.518 196.673 201.369 198.758 198.802 199.899C196.652 200.854 194.84 202.108 192.486 202.949C190.831 203.54 187.75 204.365 186.412 205.405C184.01 207.274 183.399 206.613 182.175 204.164C180.95 201.715 179.787 199.567 178.153 197.388C176.878 195.689 174.143 194.567 172.565 192.989" stroke="black" stroke-width="3" stroke-linecap="round"/>
<path d="M171.593 196.876C169.889 198.58 168.735 200.131 167.22 201.734C165.976 203.052 165.864 205.52 164.791 206.593" stroke="black" stroke-width="3" stroke-linecap="round"/>
<path d="M154.588 190.559C157.588 192.09 160.904 194.43 160.904 198.333C160.904 199.47 161.185 201.224 161.984 202.112C162.778 202.995 163.819 203.343 163.819 204.649" stroke="black" stroke-width="3" stroke-linecap="round"/>
<path d="M152.644 191.531C153.634 189.143 154.993 187.011 157.287 185.7C158.52 184.996 160.508 183.271 161.876 183.271" stroke="black" stroke-width="3" stroke-linecap="round"/>
<path d="M162.362 189.587C161.638 190.514 160.795 191.694 159.932 192.503C159.136 193.249 159.923 191.688 159.932 191.531C160.019 190.065 161.504 189.132 161.876 187.644" stroke="black" stroke-width="3" stroke-linecap="round"/>
<path d="M157.017 195.904C153.292 195.904 149.567 195.904 145.842 195.904C144.601 195.904 142.16 195.397 141.469 196.606C141.068 197.307 138.771 198.585 138.068 198.819" stroke="black" stroke-width="3" stroke-linecap="round"/>
<path d="M150.701 192.503C149.742 193.769 148.229 195.682 146.814 196.39" stroke="black" stroke-width="3" stroke-linecap="round"/>
<path d="M136.61 199.791C134.31 199.791 132.067 199.666 130.024 200.25C127.964 200.838 126.559 203.23 124.248 203.651C121.88 204.081 121.548 204.033 121.548 206.593C121.548 208.615 120.577 209.738 120.577 211.452C120.577 214.781 120.297 218.663 119.578 221.898C119.395 222.722 118.585 223.721 118.255 224.57C117.785 225.779 119.688 225.768 120.091 226.271C120.703 227.036 124.208 226.514 125.192 226.514C128.836 226.514 132.48 226.514 136.124 226.514C137.701 226.514 139.838 225.18 141.199 225.569C141.41 225.629 140.635 230.93 140.254 231.615C138.97 233.928 140.011 239.399 140.011 242.062C140.011 245.546 140.657 249.804 139.634 253.129C138.621 256.421 138.068 259.732 138.068 263.197C138.068 266.611 137.443 270.763 138.446 274.021C138.955 275.677 139.074 277.53 139.553 279.204C139.778 279.993 140.011 280.442 140.011 281.418C140.011 282.497 140.983 282.526 140.983 283.604C140.983 285.967 142.055 285.79 144.141 285.79C146.455 285.79 149.491 286.327 151.672 285.548C155.475 284.189 160.271 284.819 164.305 284.819C169.245 284.819 174.185 284.819 179.124 284.819C183.182 284.819 187.24 284.819 191.298 284.819C192.819 284.819 195.468 285.329 196.859 284.711C200.415 283.13 204.529 283.76 206.09 281.418" stroke="black" stroke-width="3" stroke-linecap="round"/>
<path d="M198.316 221.655C198.316 216.532 198.912 212.314 202.689 208.536C204.09 207.136 205.142 205.487 206.36 203.921C207.408 202.573 210.544 200.763 212.164 200.763C214.894 200.763 221.612 197.479 224.095 199.548C227.012 201.979 231.117 205.704 231.356 209.994C231.437 211.452 232.328 213.064 232.328 214.61C232.328 215.757 232.554 218.826 233.299 219.712C233.756 220.254 234.37 225.271 233.515 225.515C231.399 226.12 228.409 225.542 226.227 225.542C221.701 225.542 217.175 225.542 212.65 225.542C210.787 225.542 208.925 225.542 207.062 225.542C204.962 225.542 203.14 226.514 201.232 226.514" stroke="black" stroke-width="3" stroke-linecap="round"/>
<path d="M196.859 223.599L197.83 226.028" stroke="black" stroke-width="3" stroke-linecap="round"/>
<path d="M216.78 192.989C218.985 194.659 221.436 196.484 224.068 197.361" stroke="black" stroke-width="3" stroke-linecap="round"/>
<path d="M118.633 208.051C115.475 208.051 112.317 208.051 109.158 208.051C106.027 208.051 104.543 208.372 104.543 204.892C104.543 202.139 104.543 199.386 104.543 196.633C104.543 194.698 103.845 191.037 104.786 189.344C106.054 187.061 106.873 182.554 106.972 179.978C107.056 177.79 107.151 174.123 108.052 172.096C109.214 169.48 109.854 166.557 110.967 164.052C111.445 162.977 111.345 161.906 111.345 160.678C111.345 159.507 112.317 158.974 112.317 157.52" stroke="black" stroke-width="3" stroke-linecap="round"/>
<path d="M144.87 155.09C144.87 157.284 144.888 157.947 143.898 159.679C143.408 160.538 143.413 161.071 143.413 162.136C143.413 164.12 146.442 163.35 148.028 163.35C151.993 163.35 155.775 161.258 158.961 159.571C159.974 159.035 160.603 159.077 161.633 158.276C162.184 157.846 162.871 157.034 163.576 157.034C165.014 157.034 167.416 154.787 168.921 154.119C171.867 152.809 177.91 151.917 177.91 156.791C177.91 160.888 175.781 163.928 172.079 165.888C170.534 166.705 169.049 167.721 167.436 168.182C166.59 168.424 165.311 169.181 164.548 169.181C163.679 169.181 162.496 168.969 161.66 169.208C160.004 169.681 158.425 170.152 156.531 170.152C153.999 170.152 157.148 172.508 158.475 172.582C159.148 172.619 160.501 173.523 161.012 173.931C161.521 174.339 163.18 174.039 163.819 174.039C166.202 174.039 167.635 173.086 169.65 172.582" stroke="black" stroke-width="3" stroke-linecap="round"/>
<path d="M153.13 164.322C153.476 166.096 154.064 167.123 154.588 168.695" stroke="black" stroke-width="3" stroke-linecap="round"/>
<path d="M161.39 160.921C162.259 163.148 162.809 165.443 165.277 166.265" stroke="black" stroke-width="3" stroke-linecap="round"/>
<path d="M168.192 158.006C168.919 159.759 170.42 162.244 172.079 163.35" stroke="black" stroke-width="3" stroke-linecap="round"/>
<path d="M153.123 131C149.84 136.608 154.988 132.905 153.123 131.972" stroke="black" stroke-width="3" stroke-linecap="round"/>
<path d="M175.123 131C171.84 136.608 176.988 132.905 175.123 131.972" stroke="black" stroke-width="3" stroke-linecap="round"/>
<path d="M111.345 155.576C113.334 154.8 115.232 154.399 115.232 151.932C115.232 151.023 115.98 149.372 116.447 148.531C117.908 145.9 118.633 142.504 118.633 139.299C118.633 135.447 115.078 135.299 112.911 137.707C112.024 138.692 111.419 140.709 111.345 141.972C111.303 142.683 109.394 144.655 108.916 145.373" stroke="black" stroke-width="3" stroke-linecap="round"/>
<path d="M112.803 134.684C112.751 132.576 112.23 131.295 110.967 129.717C110.714 129.401 110.88 128.743 110.859 128.367C110.817 127.604 110.071 127.674 109.914 127.126C109.322 125.051 109.546 123.249 108.43 121.295C106.769 118.389 105.089 121.49 103.949 122.915C102.994 124.108 103.571 127.288 103.571 128.853C103.571 129.723 103.571 134.842 103.571 132.497C103.571 131.042 103.066 127.38 101.87 126.424C100.471 125.304 100.021 122.045 97.9834 121.592C96.1967 121.195 93.4767 121.791 92.9087 123.778C92.3218 125.833 90.8918 127.798 92.0179 129.825C93.0526 131.687 96.7687 132.616 96.7687 134.684C96.7687 135.7 92.6295 131.538 92.1529 130.797C91.5084 129.794 86.5573 127.553 86.1065 129.582C85.6832 131.487 87.3146 133.764 87.5371 135.655C87.667 136.76 89.4545 139.46 90.0744 140.514C92.4783 144.601 90.458 148.579 90.9382 152.661C91.0694 153.776 92.0237 154.616 92.5038 155.576C93.0328 156.634 94.3393 156.495 94.3393 157.763C94.3393 160.193 93.8727 162.767 92.8817 164.997C91.9364 167.124 92.0455 168.684 91.91 171.124C91.871 171.826 91.0674 174.098 90.6953 174.768C90.1499 175.75 90.7835 176.938 90.3444 177.926C88.536 181.995 87.5513 186.973 86.5923 191.288C86.372 192.28 86.6216 193.433 86.5653 194.446C86.503 195.569 85.5936 196.273 85.5936 197.604C85.5936 199.768 85.1077 202.125 85.1077 204.407C85.1077 206.48 84.136 208.323 84.136 210.48C84.136 212.488 84.078 214.983 83.2722 216.796C82.6829 218.122 82.809 222.179 84.136 222.843C86.2106 223.88 88.4196 223.599 90.6953 223.599C94.9872 223.599 99.2791 223.599 103.571 223.599C108.559 223.599 112.295 221.655 117.175 221.655" stroke="black" stroke-width="3" stroke-linecap="round"/>
<path d="M208.52 228.457C208.52 232.001 207.548 234.846 207.548 238.418C207.548 240.847 207.548 243.276 207.548 245.706C207.548 250.565 207.548 255.423 207.548 260.282C207.548 265.348 207.548 270.413 207.548 275.479C207.548 277.432 208.034 279.713 208.034 281.903C208.034 282.892 208.312 284.387 207.926 285.305C207.356 286.658 206.655 287.291 206.576 288.706C206.452 290.95 204.147 292.88 204.147 295.265C204.147 296.668 203.438 301.37 205.362 301.797C208.863 302.575 208.183 298.6 210.193 297.451C210.704 297.16 210.592 294.865 210.436 294.32C210.374 294.101 209.387 293.804 209.977 294.158C210.564 294.51 210.463 295.162 210.463 295.751C210.463 297.973 210.405 300.042 210.976 302.04C211.865 305.152 214.836 304.21 214.836 301.095C214.836 299.008 214.836 292.746 214.836 294.833C214.836 297.379 215.256 299.22 215.781 301.581C216.02 302.656 215.284 303.768 216.78 303.768C218.075 303.768 219.371 303.768 220.667 303.768C222.418 303.768 222.667 298.98 221.746 297.829C220.974 296.864 221.152 293.122 221.152 291.837C221.152 289.641 221.152 296.228 221.152 298.423C221.152 301.09 224.198 301.69 226.47 301.311C227.832 301.085 226.729 295.701 226.524 294.779C226.044 292.618 226.011 290.221 226.011 287.977C226.011 287.044 225.708 286.007 225.498 285.062C225.478 284.968 224.334 282.408 224.311 282.389C223.434 281.688 224.068 277.225 224.068 276.073C224.068 273.806 224.068 271.538 224.068 269.271C224.068 264.736 224.068 260.201 224.068 255.666C224.068 252.787 224.883 250.058 225.039 247.406C225.187 244.906 226.011 243.027 226.011 240.604C226.011 236.069 226.011 231.535 226.011 227" stroke="black" stroke-width="3" stroke-linecap="round"/>
<path d="M200.746 287.248V352.355" stroke="black" stroke-width="3" stroke-linecap="round"/>
<path d="M145.356 289.677C143.556 292.753 143.898 295.331 143.898 298.801C143.898 301.752 144.87 304.512 144.87 307.385C144.87 311.373 145.356 315.662 145.356 319.802C145.356 328.871 145.356 337.941 145.356 347.011" stroke="black" stroke-width="3" stroke-linecap="round"/>
<path d="M145.356 348.954L146.814 350.898" stroke="black" stroke-width="3" stroke-linecap="round"/>
<path d="M164.305 330.491C164.305 334.394 163.993 339.811 165.277 343.501C165.986 345.54 166.735 348.719 166.735 350.898" stroke="black" stroke-width="3" stroke-linecap="round"/>
<path d="M105.029 150.717C105.029 152.575 104.353 157.52 107.458 157.52" stroke="black" stroke-width="3" stroke-linecap="round"/>
</g>
<defs>
<clipPath id="clip0">
<rect width="350" height="350" fill="white"/>
</clipPath>
</defs>
</svg>
